<svg width="188" height="188" viewBox="0 0 188 188" fill="none" xmlns="http://www.w3.org/2000/svg">
<g filter="url(#filter0_d_2_3)">
<g clip-path="url(#clip0_2_3)">
<path d="M44.2458 -0.404053C45.4405 -0.410916 46.6352 -0.417779 47.8661 -0.42485C51.1183 -0.439936 54.3702 -0.441635 57.6224 -0.435908C60.3484 -0.4328 63.0743 -0.438926 65.8002 -0.444947C72.2362 -0.458954 78.6721 -0.457462 85.1082 -0.446045C91.7242 -0.434567 98.3399 -0.448643 104.956 -0.475441C110.659 -0.497668 116.362 -0.50422 122.065 -0.498365C125.461 -0.495011 128.857 -0.497307 132.253 -0.514616C136.044 -0.529553 139.834 -0.518827 143.625 -0.501709C145.289 -0.516211 145.289 -0.516211 146.987 -0.531006C157.521 -0.431782 166.246 2.76086 174 10C182.639 19.1943 184.454 27.8719 184.404 40.2458C184.411 41.4405 184.418 42.6352 184.425 43.8661C184.44 47.1183 184.442 50.3702 184.436 53.6224C184.433 56.3484 184.439 59.0743 184.445 61.8002C184.459 68.2362 184.457 74.6721 184.446 81.1082C184.435 87.7242 184.449 94.3399 184.475 100.956C184.498 106.659 184.504 112.362 184.498 118.065C184.495 121.461 184.497 124.857 184.515 128.253C184.53 132.044 184.519 135.834 184.502 139.625C184.516 141.289 184.516 141.289 184.531 142.987C184.432 153.521 181.239 162.246 174 170C164.806 178.639 156.128 180.454 143.754 180.404C142.559 180.411 141.365 180.418 140.134 180.425C136.882 180.44 133.63 180.442 130.378 180.436C127.652 180.433 124.926 180.439 122.2 180.445C115.764 180.459 109.328 180.457 102.892 180.446C96.2758 180.435 89.6601 180.449 83.0441 180.475C77.341 180.498 71.6381 180.504 65.9349 180.498C62.5387 180.495 59.1427 180.497 55.7465 180.515C51.9558 180.53 48.1659 180.519 44.3752 180.502C43.2658 180.511 42.1564 180.521 41.0134 180.531C30.4787 180.432 21.7539 177.239 14 170C5.36079 160.806 3.54583 152.128 3.59595 139.754C3.58908 138.559 3.58222 137.365 3.57515 136.134C3.56006 132.882 3.55836 129.63 3.56409 126.378C3.5672 123.652 3.56107 120.926 3.55505 118.2C3.54105 111.764 3.54254 105.328 3.55396 98.8918C3.56543 92.2758 3.55136 85.6601 3.52456 79.0441C3.50233 73.341 3.49578 67.6381 3.50164 61.9349C3.50499 58.5387 3.5027 55.1427 3.48539 51.7465C3.47045 47.9558 3.48117 44.1659 3.49829 40.3752C3.48862 39.2658 3.47896 38.1564 3.46899 37.0134C3.56822 26.4787 6.76086 17.7539 14 10C23.1943 1.36079 31.8719 -0.454171 44.2458 -0.404053Z" fill="#143098"/>
<path d="M82 36C85.2283 38.0909 88.2789 40.2723 91 43C91 43.66 91 44.32 91 45C91.5569 44.5411 92.1137 44.0822 92.6875 43.6094C103.892 34.6007 113.764 31.7886 128 33C138.436 35.1715 146.891 41.3533 153 50C157.494 57.6533 158.182 63.8456 158.188 72.625C158.2 73.5725 158.212 74.5199 158.225 75.4961C158.238 81.8935 157.499 87.7819 156 94C157.32 93.67 158.64 93.34 160 93C160.33 86.73 160.66 80.46 161 74C167 76 167 76 168.875 79.1875C170.222 83.7507 171.036 87.7343 169 92.1875C168.67 92.7856 168.34 93.3838 168 94C168 95.32 168 96.64 168 98C166 100.25 166 100.25 164.598 101.527C162.943 103.015 162.943 103.015 161.309 104.816C154.902 111.651 147.327 116.758 139.062 121.125C136.152 122.907 134.599 124.6 132.527 127.254C126.483 134.164 118.296 139.314 110.75 144.438C109.994 144.958 109.237 145.478 108.458 146.014C101.89 150.391 95.1171 153.409 87 152C80.3691 149.561 74.7382 145.578 69.1289 141.355C66.9989 139.731 66.9989 139.731 64 140C64.7477 140.531 65.4953 141.062 66.2656 141.609C67.2505 142.316 68.2353 143.022 69.25 143.75C70.7118 144.794 70.7118 144.794 72.2031 145.859C74.6923 147.765 76.8497 149.727 79 152C75.3772 150.674 72.3649 149.057 69.1875 146.875C68.3973 146.336 67.6071 145.797 66.793 145.242C66.2013 144.832 65.6096 144.422 65 144C65 144.66 65 145.32 65 146C66.32 146.66 67.64 147.32 69 148C68.67 148.66 68.34 149.32 68 150C67.01 149.01 67.01 149.01 66 148C62.492 147.649 59.0035 147.556 55.4805 147.441C50.8521 146.854 48.2585 145.258 45 142C45 140.68 45 139.36 45 138C43.68 137.67 42.36 137.34 41 137C41 137.99 41 138.98 41 140C37.535 140.99 37.535 140.99 34 142C33.7448 141.004 33.7448 141.004 33.4844 139.988C32.0762 134.857 30.8606 130.861 27 127C26.34 126.67 25.68 126.34 25 126C21.2594 119.67 21.2947 113.21 22 106C23.375 102.375 23.375 102.375 25 100C25.66 99.01 26.32 98.02 27 97C28.32 97 29.64 97 31 97C30.7113 96.4006 30.4225 95.8012 30.125 95.1836C25.2362 83.2503 24.4018 67.1774 29.0625 55.0625C34.2013 45.0615 42.0918 38.1347 52.4805 33.9844C61.7908 31.3804 73.2728 31.659 82 36ZM25 126C27 129 27 129 26.625 131.188C26.4188 131.786 26.2125 132.384 26 133C24.35 133 22.7 133 21 133C21 131.02 21 129.04 21 127C23 126 23 126 25 126Z" fill="#1EA3F9"/>
<path d="M161 74C167 76 167 76 168.875 79.1875C170.222 83.7507 171.036 87.7343 169 92.1875C168.67 92.7856 168.34 93.3838 168 94C168 95.32 168 96.64 168 98C166 100.25 166 100.25 164.598 101.527C162.943 103.015 162.943 103.015 161.309 104.816C154.902 111.651 147.327 116.758 139.063 121.125C136.152 122.907 134.599 124.6 132.527 127.254C126.483 134.164 118.296 139.314 110.75 144.438C109.994 144.958 109.237 145.478 108.458 146.014C101.884 150.395 95.124 153.398 87 152C81.1453 149.902 76.618 146.704 71.875 142.75C65.126 137.584 58.1688 137.836 50 138C49.67 138.66 49.34 139.32 49 140C49 138.68 49 137.36 49 136C48.01 135.917 47.02 135.835 46 135.75C37.4343 134.457 31.4419 129.54 26 123C23.08 118.336 23.3699 113.326 24 108C25.0654 105.04 26.3624 102.712 28 100C29.32 100 30.64 100 32 100C32.1706 101.541 32.3363 103.083 32.5 104.625C32.647 105.998 32.647 105.998 32.7969 107.398C33 110 33 110 32.75 113.25C33.1116 117.227 35.0729 119.488 38 122C43.1207 124.954 48.1643 125.915 54 125C54.66 124.34 55.32 123.68 56 123C56.495 124.98 56.495 124.98 57 127C71.6877 127.49 71.6877 127.49 86.1914 125.633C88.5134 125.11 90.8048 124.686 93.1524 124.305C93.8997 124.182 94.647 124.059 95.417 123.933C96.8818 123.694 98.3472 123.459 99.8135 123.229C104.085 122.508 107.932 121.395 111.956 119.795C114.058 118.977 116.176 118.28 118.324 117.594C132.921 112.765 146.778 106.8 157 95C157.33 94.34 157.66 93.68 158 93C158.66 93 159.32 93 160 93C160.33 86.73 160.66 80.46 161 74Z" fill="#F2F7FB"/>
<path d="M130.047 39.1016C132.571 40.5675 134.756 42.135 137 44C137.762 44.611 138.524 45.222 139.309 45.8516C142.378 48.4227 144.768 50.6517 147 54C146.447 49.9701 145.844 45.9798 145 42C151.767 46.6726 156.349 53.8923 158 62C158.222 65.5387 158.185 69.08 158.188 72.625C158.2 73.5725 158.212 74.5199 158.225 75.4961C158.238 81.8935 157.499 87.7819 156 94C156.66 93.67 157.32 93.34 158 93C156.415 96.9758 153.812 99.3253 150.688 102.187C149.743 103.068 148.798 103.948 147.824 104.855C145.032 106.975 143.439 107.681 140 108C140.326 107.201 140.652 106.402 140.988 105.578C146.603 91.4675 152.668 73.2621 148 58C147.602 58.5118 147.203 59.0235 146.793 59.5508C145 61 145 61 142.738 60.8555C141.938 60.635 141.137 60.4146 140.312 60.1875C139.504 59.9748 138.696 59.7621 137.863 59.543C137.248 59.3638 136.634 59.1846 136 59C136 58.34 136 57.68 136 57C134.831 56.8904 133.662 56.7809 132.457 56.668C130.909 56.5084 129.361 56.3483 127.812 56.1875C127.044 56.1172 126.275 56.047 125.482 55.9746C121.025 55.4963 117.567 54.9539 114 52C113.188 48.3125 113.188 48.3125 113 45C115.97 43.35 118.94 41.7 122 40C115.09 39.6231 108.622 40.1835 102.98 44.5703C101.793 45.6451 100.632 46.7501 99.5078 47.8906C99.0102 48.2567 98.5127 48.6228 98 49C97.01 48.67 96.02 48.34 95 48C96.1767 46.8844 97.3671 45.7831 98.5625 44.6875C99.2238 44.0726 99.8851 43.4577 100.566 42.8242C108.722 36.7104 120.492 35.647 130.047 39.1016Z" fill="#6CBCF9"/>
<path d="M85.9795 70.0103C89.0417 71.0137 91.5581 72.1936 94.3281 73.8359C95.2923 74.4057 96.2566 74.9755 97.25 75.5625C98.24 76.1606 99.23 76.7588 100.25 77.375C101.255 77.9654 102.261 78.5558 103.297 79.1641C110.735 83.6032 110.735 83.6032 113 87C113.188 90.3125 113.188 90.3125 112 94C109.326 96.5418 106.198 98.192 103 100C101.854 100.714 100.711 101.431 99.5703 102.152C98.3604 102.895 97.1494 103.636 95.9375 104.375C94.8121 105.063 93.6868 105.752 92.5273 106.461C88.1258 108.381 85.7506 108.603 81 108C78.5885 105.709 78.0378 104.273 77.5801 100.963C77.4893 94.4184 77.4893 94.4184 77.499 91.5828C77.5 89.5713 77.4584 87.5637 77.4141 85.5527C77.4102 83.6414 77.4102 83.6414 77.4062 81.6914C77.3992 80.5281 77.3921 79.3648 77.3848 78.1663C78.3538 73.179 80.6682 69.992 85.9795 70.0103Z" fill="#F0F1F3"/>
<path d="M161 74C167 76 167 76 168.875 79.1875C170.222 83.7507 171.036 87.7343 169 92.1875C168.67 92.7856 168.34 93.3838 168 94C168 95.32 168 96.64 168 98C166 100.25 166 100.25 164.598 101.527C162.943 103.015 162.943 103.015 161.309 104.816C154.818 111.741 147.111 116.733 138.875 121.375C135.979 122.843 135.979 122.843 134 125C131.923 125.443 129.844 125.882 127.762 126.301C124.547 127.115 121.578 128.269 118.5 129.5C111.827 132.143 105.273 134.469 98 134C99.3052 131.39 100.358 131.319 103.062 130.375C104.163 129.984 104.163 129.984 105.285 129.586C105.851 129.393 106.417 129.199 107 129C106.67 128.34 106.34 127.68 106 127C106.99 126.505 106.99 126.505 108 126C103.38 126 98.76 126 94 126C96.797 124.135 98.0275 123.65 101.188 123.062C104.921 122.291 108.332 121.229 111.867 119.817C113.92 119.031 115.98 118.349 118.074 117.684C132.752 112.808 146.71 106.877 157 95C157.33 94.34 157.66 93.68 158 93C158.66 93 159.32 93 160 93C160.33 86.73 160.66 80.46 161 74Z" fill="#F6FAFD"/>
<path d="M82 36C85.2283 38.0909 88.2789 40.2723 91 43C91 43.66 91 44.32 91 45C91.5569 44.5411 92.1137 44.0822 92.6875 43.6094C103.864 34.6229 113.783 31.7362 128 33C131.95 33.8874 135.388 35.1907 139 37C140.155 37.5569 141.31 38.1137 142.5 38.6875C146.695 42.5677 147.845 47.4637 148.188 53.0625C148.095 54.0216 148.095 54.0216 148 55C147.381 54.34 146.762 53.68 146.125 53C139.071 45.9665 131.324 38.7274 120.935 38.4812C119.853 38.4905 119.853 38.4905 118.75 38.5C117.625 38.5064 117.625 38.5064 116.477 38.5129C108.489 38.7569 102.719 41.3866 96.875 46.8125C93.8211 49.1361 91.8601 49.8001 88.0039 49.5586C84.8943 48.6918 83.0746 46.8049 80.7891 44.5976C74.3311 38.8306 66.3028 37.5512 57.9062 37.6641C50.0569 38.5714 43.9686 43.1767 38.6914 48.8164C31.5503 58.0355 31.3758 68.8107 32 80C33.1607 87.1105 35.9063 93.3698 39.1094 99.7851C39.4033 100.516 39.6972 101.247 40 102C39.505 102.99 39.505 102.99 39 104C29.8708 92.3457 25.1598 78.708 26.6973 63.9438C28.438 52.7666 35.1861 44.5874 44 38C55.1502 31.5114 70.1909 30.1261 82 36Z" fill="#039AF9"/>
<path d="M134 125C132.358 126.697 130.69 128.352 129 130C128.353 130.643 127.706 131.286 127.039 131.949C121.824 136.906 116.323 140.999 110.312 144.937C109.6 145.41 108.887 145.883 108.153 146.37C101.718 150.487 94.7856 153.352 87 152C79.7101 149.319 73.0637 144.799 67 140C67 139.67 67 139.34 67 139C67.7592 138.9 68.5184 138.8 69.3005 138.696C96.5606 135.169 96.5606 135.169 122.651 126.93C126.599 125.321 129.743 124.712 134 125Z" fill="#4FDAF9"/>
<path d="M31 96C32.9262 98.8893 34.3859 101.772 35.9375 104.875C39.4642 111.525 43.8477 116.915 48.8398 122.516C51 125 51 125 51 126C43.4773 125.666 39.4421 123.899 33.625 119C31.3983 114.889 31.7423 111.442 31.957 106.84C31.9955 104.3 31.7553 102.404 31 100C27.7397 100.721 27.7397 100.721 26.3125 103.875C24.3998 108.809 24.3127 113.794 25 119C27.9559 125.404 34.2312 130.985 40.6875 133.875C43.8901 135.045 43.8901 135.045 46.875 135.562C47.5763 135.707 48.2775 135.851 49 136C49.33 136.66 49.66 137.32 50 138C55.28 138 60.56 138 66 138C65.34 138.66 64.68 139.32 64 140C64.7477 140.531 65.4953 141.062 66.2656 141.609C67.2505 142.316 68.2353 143.022 69.25 143.75C70.2245 144.446 71.1991 145.142 72.2031 145.859C74.6923 147.765 76.8497 149.727 79 152C75.3772 150.674 72.3649 149.057 69.1875 146.875C68.0022 146.067 68.0022 146.067 66.793 145.242C66.2013 144.832 65.6096 144.422 65 144C65 144.66 65 145.32 65 146C66.32 146.66 67.64 147.32 69 148C68.505 148.99 68.505 148.99 68 150C67.34 149.34 66.68 148.68 66 148C62.492 147.649 59.0035 147.556 55.4805 147.441C50.8521 146.854 48.2585 145.258 45 142C45 140.68 45 139.36 45 138C43.68 137.67 42.36 137.34 41 137C41 137.99 41 138.98 41 140C38.69 140.66 36.38 141.32 34 142C33.8298 141.336 33.6597 140.672 33.4844 139.988C32.0762 134.857 30.8606 130.861 27 127C26.34 126.67 25.68 126.34 25 126C21.2594 119.67 21.2947 113.21 22 106C23.375 102.375 23.375 102.375 25 100C25.66 99.01 26.32 98.02 27 97C29.125 96.3125 29.125 96.3125 31 96ZM25 126C27 129 27 129 26.625 131.188C26.4188 131.786 26.2125 132.384 26 133C24.35 133 22.7 133 21 133C21 131.02 21 129.04 21 127C23 126 23 126 25 126Z" fill="#8197C7"/>
<path d="M76 79C76 87.25 76 95.5 76 104C75.67 104 75.34 104 75 104C75 96.41 75 88.82 75 81C69.6183 85.0176 69.6183 85.0176 67 90C66.6081 90.9281 66.2163 91.8562 65.8125 92.8125C64.3036 98.7319 66.0861 103.715 68.2812 109.203C68.9121 110.78 69.4629 112.389 70 114C72.725 114.998 72.725 114.998 75.9375 115.625C81.8887 116.944 81.8887 116.944 84 118C89.7163 117.952 94.8507 116.562 100.152 114.523C102 114 102 114 104 115C103.34 115.99 102.68 116.98 102 118C101.34 118 100.68 118 100 118C100 118.66 100 119.32 100 120C99.01 120.495 99.01 120.495 98 121C101.3 121 104.6 121 108 121C105.147 123.853 101.903 123.895 98.0625 124.5C96.496 124.756 94.9296 125.012 93.3633 125.27C92.2256 125.454 92.2256 125.454 91.0649 125.643C88.6045 126.068 86.1842 126.633 83.75 127.188C78.1778 128.21 72.5869 128.25 66.9375 128.312C65.9955 128.33 65.0535 128.348 64.083 128.366C63.1984 128.365 62.3138 128.364 61.4023 128.363C60.2034 128.368 60.2034 128.368 58.9802 128.372C58 128.188 58 128.188 57 128C56.34 127.01 55.68 126.02 55 125C53.02 125.495 53.02 125.495 51 126C51.66 124.68 52.32 123.36 53 122C53.99 122 54.98 122 56 122C56.33 121.01 56.66 120.02 57 119C58 121 58 121 58 125C60.8842 126.442 63.4172 126.094 66.625 126.062C68.4078 126.049 68.4078 126.049 70.2266 126.035C71.1418 126.024 72.057 126.012 73 126C73 124.68 73 123.36 73 122C71.035 120.616 69.0295 119.288 67 118C62.0496 112.912 60.9101 107.556 60.6875 100.625C60.8239 94.0056 62.341 88.6888 65.8125 83.0625C68.7952 80.2502 71.8787 79 76 79Z" fill="#7DC6FB"/>
<path d="M89 125C95.6 125 102.2 125 109 125C107 130 107 130 105.055 131.145C104.335 131.365 103.616 131.585 102.875 131.812C102.151 132.046 101.426 132.279 100.68 132.52C99.8482 132.757 99.8482 132.757 99 133C99 133.66 99 134.32 99 135C82.3811 138.747 66.9633 139.303 50 138C49.67 138.66 49.34 139.32 49 140C49 139.01 49 138.02 49 137C50.65 136.67 52.3 136.34 54 136C54 135.34 54 134.68 54 134C55.32 133.67 56.64 133.34 58 133C58 132.01 58 131.02 58 130C59.2091 129.951 60.4183 129.902 61.6641 129.852C71.5632 129.413 81.2168 128.644 91 127C90.34 126.34 89.68 125.68 89 125Z" fill="#BDDCFE"/>
<path d="M168 78C170.062 79.677 170.929 80.5241 171.328 83.1992C171.246 85.803 171.158 88.3996 171 91C170.957 91.7451 170.915 92.4902 170.871 93.2578C170.583 96.4861 170.135 98.7791 168.438 101.562C166.674 104.024 166.674 104.024 167.25 107.438C167 111 167 111 165.629 112.676C162.976 114.975 160.303 116.828 157.25 118.562C154.491 120.325 153.508 122.127 152 125C151.34 125.99 150.68 126.98 150 128C147.562 128.375 147.562 128.375 145 128C143.188 126.5 143.188 126.5 142 125C142 127.31 142 129.62 142 132C139.525 132.495 139.525 132.495 137 133C136.01 131.68 135.02 130.36 134 129C134.433 128.529 134.866 128.059 135.312 127.574C135.869 126.952 136.426 126.329 137 125.688C137.557 125.073 138.114 124.458 138.688 123.824C140.292 121.969 140.292 121.969 140 119C140.655 118.694 141.31 118.389 141.984 118.074C151.813 113.146 160.553 105.987 167 97C167.72 93.8488 167.72 93.8488 168 91C168.33 90.67 168.66 90.34 169 90C169.16 85.8354 168.982 82.0527 168 78Z" fill="#3D60B9"/>
<path d="M77 70C78 72 78 72 77.5625 75.4375C76 79 76 79 74.2227 79.9492C72.8087 80.4047 71.3906 80.8472 69.9688 81.2773C66.8215 82.4326 65.651 84.1426 64 87C60.8366 96.1738 60.8307 105.198 65 114C66.9178 117.169 68.5801 118.585 72 120C71.01 120.495 71.01 120.495 70 121C67.9062 120.145 67.9063 120.145 65.5 118.812C64.7059 118.386 63.9119 117.959 63.0938 117.52C60.772 115.835 59.9725 114.672 59 112C58.875 109.25 58.875 109.25 59 107C57.68 107 56.36 107 55 107C51.9237 93.5514 51.9237 93.5514 55.4141 87.1914C61.1973 79.2003 67.8645 73.6931 77 70Z" fill="#2CA4FA"/>
<path d="M128 102C130.475 102.495 130.475 102.495 133 103C133.495 105.475 133.495 105.475 134 108C136.915 106.926 138.778 106.222 141 104C141 106.242 141 106.242 140 109C137.53 110.797 134.8 111.929 132 113.125C131.223 113.472 130.445 113.819 129.645 114.176C124.528 116.429 119.415 118.574 114 120C113.256 120.202 112.512 120.405 111.746 120.613C106.72 121.863 102.173 122.188 97 122C97.33 121.34 97.66 120.68 98 120C98.66 120 99.32 120 100 120C100 119.34 100 118.68 100 118C100.66 118 101.32 118 102 118C102.33 117.01 102.66 116.02 103 115C104.891 114.156 104.891 114.156 107.25 113.5C110.891 112.39 113.824 111.146 117 109C118.093 108.278 119.186 107.556 120.312 106.812C121.199 106.214 122.086 105.616 123 105C123.66 105.33 124.32 105.66 125 106C125.66 105.34 126.32 104.68 127 104C127.33 104.99 127.66 105.98 128 107C128.99 107 129.98 107 131 107C131 106.01 131 105.02 131 104C130.01 103.34 129.02 102.68 128 102Z" fill="#2D8AED"/>
<path d="M73 39C74.6875 40.5742 74.6875 40.5742 76 42C74.2598 42.0039 74.2598 42.0039 72.4844 42.0078C60.4536 42.2272 51.0121 43.9585 41.9375 52.5625C39.5452 55.1754 37.7688 57.9278 36 61C35.34 61 34.68 61 34 61C33.34 66.61 32.68 72.22 32 78C31.67 78 31.34 78 31 78C30.4431 64.8403 32.0481 55.3666 41.125 45.4375C50.1911 36.7572 61.2617 34.3536 73 39Z" fill="#88DCFE"/>
<path d="M33 130C33.7361 130.349 34.4721 130.699 35.2305 131.059C36.6942 131.741 36.6942 131.741 38.1875 132.438C39.1504 132.89 40.1134 133.342 41.1055 133.809C43.9271 135.083 43.9271 135.083 46.8008 135.535C47.5265 135.689 48.2523 135.842 49 136C49.33 136.66 49.66 137.32 50 138C55.28 138 60.56 138 66 138C65.34 138.66 64.68 139.32 64 140C65.1215 140.797 65.1215 140.797 66.2656 141.609C67.2505 142.316 68.2353 143.022 69.25 143.75C70.7118 144.794 70.7118 144.794 72.2031 145.859C74.6923 147.765 76.8497 149.727 79 152C75.3772 150.674 72.3649 149.057 69.1875 146.875C68.3973 146.336 67.6071 145.797 66.793 145.242C66.2013 144.832 65.6096 144.422 65 144C65 144.66 65 145.32 65 146C66.32 146.66 67.64 147.32 69 148C68.67 148.66 68.34 149.32 68 150C67.34 149.34 66.68 148.68 66 148C62.492 147.649 59.0035 147.556 55.4805 147.441C50.8521 146.854 48.2585 145.258 45 142C45 140.68 45 139.36 45 138C43.68 137.67 42.36 137.34 41 137C41 137.99 41 138.98 41 140C38.69 140.66 36.38 141.32 34 142C34 140.35 34 138.7 34 137C34.66 137 35.32 137 36 137C35.6521 135.025 35.6521 135.025 35 133C34.34 132.67 33.68 132.34 33 132C33 131.34 33 130.68 33 130Z" fill="#647ECD"/>
<path d="M44.6875 38.8125C45.4506 38.8744 46.2137 38.9363 47 39C47 39.99 47 40.98 47 42C45.4258 43.543 45.4258 43.543 43.3125 45.1875C37.0142 50.4937 32.9553 56.6674 32 65C31.1689 78.1198 33.2755 88.1006 39.1094 99.7852C39.4033 100.516 39.6972 101.247 40 102C39.505 102.99 39.505 102.99 39 104C29.8708 92.3457 25.1598 78.708 26.6973 63.9438C28.0903 54.9991 32.6705 48.2245 39 42C39.5092 41.438 40.0184 40.8759 40.543 40.2969C42 39 42 39 44.6875 38.8125Z" fill="#039CF7"/>
<path d="M161 74C167 76 167 76 168.875 79.1875C170.222 83.7507 171.036 87.7343 169 92.1875C168.505 93.0847 168.505 93.0847 168 94C168 95.32 168 96.64 168 98C166.217 100.016 164.169 101.373 162 103C161.67 102.01 161.34 101.02 161 100C160.34 99.835 159.68 99.67 159 99.5C158.34 99.335 157.68 99.17 157 99C156.67 98.01 156.34 97.02 156 96C156.99 94.515 156.99 94.515 158 93C158.66 93 159.32 93 160 93C160.33 86.73 160.66 80.46 161 74Z" fill="#E8F3FB"/>
<path d="M137 121C138.32 121.33 139.64 121.66 141 122C137.026 127.865 133.522 131.863 127.016 134.832C124.637 136.21 123.596 137.789 122 140C120.358 140.985 118.711 141.963 117.023 142.867C114.762 144.133 112.644 145.544 110.5 147C109.733 147.508 108.966 148.016 108.176 148.539C106.862 149.422 105.562 150.327 104.293 151.273C98.9718 154.924 93.2541 154.842 87 154C84.0955 152.991 81.6339 151.564 79 150C77.8656 149.567 76.7313 149.134 75.5625 148.688C70.8231 146.443 67.0239 143.33 63 140C66.4877 138.774 66.4877 138.774 68.7517 139.773C69.3274 140.184 69.903 140.596 70.4961 141.02C71.1374 141.465 71.7787 141.91 72.4395 142.369C73.0988 142.845 73.7582 143.322 74.4375 143.812C81.1631 148.581 86.3842 152.003 95 151C101.353 149.462 106.472 146.785 111.75 143C112.43 142.522 113.111 142.043 113.812 141.55C118.435 138.249 122.898 134.776 127.25 131.125C128.036 130.466 128.036 130.466 128.839 129.793C131.945 127.112 134.534 124.276 137 121Z" fill="#1A2C43"/>
<path d="M102 114C102.66 114.33 103.32 114.66 104 115C103.34 115.99 102.68 116.98 102 118C101.34 118 100.68 118 100 118C100 118.66 100 119.32 100 120C99.34 120.33 98.68 120.66 98 121C101.3 121 104.6 121 108 121C105.147 123.853 101.903 123.895 98.0625 124.5C96.496 124.756 94.9296 125.012 93.3633 125.27C92.6048 125.393 91.8464 125.516 91.0649 125.643C88.6045 126.068 86.1842 126.633 83.75 127.188C78.1778 128.21 72.5869 128.25 66.9375 128.312C65.5245 128.339 65.5245 128.339 64.083 128.366C63.1984 128.365 62.3138 128.364 61.4023 128.363C60.2034 128.368 60.2034 128.368 58.9802 128.372C58 128.188 58 128.188 57 128C56.34 127.01 55.68 126.02 55 125C53.68 125.33 52.36 125.66 51 126C51.66 124.68 52.32 123.36 53 122C53.99 122 54.98 122 56 122C56.33 121.01 56.66 120.02 57 119C58 121 58 121 58 125C60.8842 126.442 63.4172 126.094 66.625 126.062C68.4078 126.049 68.4078 126.049 70.2266 126.035C71.5994 126.018 71.5994 126.018 73 126C73 124.68 73 123.36 73 122C76.1998 121.028 78.9209 120.982 82.25 121.125C87.5966 121.175 91.1876 120.32 96 118C96.5053 117.491 97.0106 116.982 97.5312 116.457C99 115 99 115 102 114Z" fill="#74A4E7"/>
<path d="M44 109C46.7795 110.223 48.9536 111.75 51.3125 113.625C54.9748 116.313 57.4667 116.08 62 116C64.8291 117.06 67.3945 118.479 70 120C70.99 120.577 71.98 121.155 73 121.75C73.66 122.162 74.32 122.575 75 123C74.34 124.32 73.68 125.64 73 127C70.8961 127.054 68.7918 127.093 66.6875 127.125C65.5157 127.148 64.344 127.171 63.1367 127.195C60 127 60 127 57 125C56.8125 122.375 56.8125 122.375 57 120C56.67 120.66 56.34 121.32 56 122C52.3852 120.502 50.3138 118.425 47.75 115.5C47.0436 114.706 46.3372 113.912 45.6094 113.094C44 111 44 111 44 109Z" fill="#2695EF"/>
<path d="M120 130C120 130.66 120 131.32 120 132C112.234 136.809 104.976 139.398 96 141C94.9765 141.183 93.953 141.366 92.8984 141.555C90.3874 141.94 87.9743 142.226 85.4375 142.312C84.7143 142.35 83.9912 142.387 83.2461 142.426C80.0895 141.827 78.3603 140.103 76 138C76.9823 137.834 76.9823 137.834 77.9844 137.665C80.9901 137.155 83.9951 136.64 87 136.125C88.03 135.951 89.0599 135.777 90.1211 135.598C94.6017 134.827 99.042 134.041 103.445 132.902C106.316 132.174 108.937 131.683 111.875 131.438C114.756 131.192 117.224 130 120 130Z" fill="#4A75F9"/>
<path d="M27 79C29.0051 82.0076 29.9914 84.6036 31.1875 88C36.1958 101.076 44.7727 110.718 54 121C53.34 122.32 52.68 123.64 52 125C47.8006 123.44 45.4366 120.356 42.75 116.938C42.2706 116.328 41.7911 115.718 41.2971 115.09C33.8644 105.242 26.385 91.607 27 79Z" fill="#2EABF1"/>
<path d="M77 83C77.33 83 77.66 83 78 83C78.0198 83.6204 78.0396 84.2409 78.0601 84.8801C78.1553 87.6913 78.265 90.5018 78.375 93.3125C78.4214 94.7772 78.4214 94.7772 78.4687 96.2715C78.5074 97.2093 78.5461 98.1471 78.5859 99.1133C78.6174 99.9774 78.6488 100.841 78.6812 101.732C78.8719 104.277 78.8719 104.277 81 107C88.72 108.272 93.8911 104.89 100.375 101C101.371 100.447 102.368 99.894 103.395 99.3242C108.592 96.3979 108.592 96.3979 112.106 91.7773C112.774 89.3631 112.774 89.3631 113 86C113.66 86 114.32 86 115 86C115.612 93.223 115.612 93.223 113.129 96.375C109.121 100.055 104.324 102.627 99.625 105.312C98.2444 106.137 98.2444 106.137 96.8359 106.979C87.7586 112.198 87.7586 112.198 82 111C77.6862 108.683 77.6862 108.683 76 106C75.2597 102.406 75.3867 98.9642 75.5625 95.3125C75.5812 94.3502 75.5999 93.3879 75.6191 92.3965C75.8008 85.3983 75.8008 85.3983 77 83Z" fill="#174485"/>
<path d="M123 39C121.807 41.3859 120.856 41.8374 118.562 43.125C117.945 43.4782 117.328 43.8314 116.691 44.1953C115 45 115 45 113 45C113.78 49.6694 113.78 49.6694 116.602 53.1602C119.882 54.3087 123.19 54.6841 126.625 55.0625C133.76 55.8801 133.76 55.8801 136 57C136 57.66 136 58.32 136 59C141.969 60.2441 141.969 60.2441 147.562 58.5625C148.037 58.0469 148.511 57.5313 149 57C149.495 61.455 149.495 61.455 150 66C149.34 65.34 148.68 64.68 148 64C145.543 63.4269 145.543 63.4269 142.75 63.0625C139.421 62.5156 137.085 62.0434 134.062 60.5C130.093 58.5558 126.258 58.116 121.902 57.5273C119.045 57.0082 116.649 56.1712 114 55C114 54.34 114 53.68 114 53C113.34 53 112.68 53 112 53C109.875 45.375 109.875 45.375 111 42C109.68 41.67 108.36 41.34 107 41C112.487 39.1322 117.222 38.7642 123 39Z" fill="#44ACFB"/>
<path d="M76 77C76 77.66 76 78.32 76 79C74.7625 79.3919 73.525 79.7838 72.25 80.1875C68.2382 81.7185 66.2015 83.1898 64 87C60.8366 96.1738 60.8307 105.198 65 114C66.9178 117.169 68.5801 118.585 72 120C71.01 120.495 71.01 120.495 70 121C67.9062 120.145 67.9062 120.145 65.5 118.813C64.7059 118.386 63.9119 117.959 63.0937 117.52C59.6672 115.033 59.1184 112.651 58.375 108.563C56.6215 91.255 56.6215 91.255 61 85C61.5362 84.1338 62.0725 83.2675 62.625 82.375C65.739 79.261 71.5929 74.7964 76 77Z" fill="#54B4FA"/>
<path d="M27 97C28.32 97.33 29.64 97.66 31 98C30.34 98 29.68 98 29 98C28.5669 99.0828 28.5669 99.0828 28.125 100.188C27.4332 101.917 26.7149 103.636 25.9531 105.336C24.34 109.845 24.4307 114.279 25 119C26.7424 122.423 28.5169 124.53 31.25 127.188C33 129 33 129 33 132C33.99 132.33 34.98 132.66 36 133C36 134.32 36 135.64 36 137C34.515 137.495 34.515 137.495 33 138C32.7577 137.385 32.5153 136.77 32.2656 136.137C30.3608 131.543 29.0921 128.904 25 126C21.1869 119.736 21.2977 113.18 22 106C23.375 102.375 23.375 102.375 25 100C25.66 99.01 26.32 98.02 27 97ZM25 126C27 129 27 129 26.625 131.188C26.4188 131.786 26.2125 132.384 26 133C24.35 133 22.7 133 21 133C21 131.02 21 129.04 21 127C23 126 23 126 25 126Z" fill="#4861B0"/>
<path d="M140 71C141.47 73.3345 142.007 74.714 141.938 77.5C140.664 80.897 139.068 82.1172 136 84C133.188 84.25 133.188 84.25 131 84C130.01 81.03 129.02 78.06 128 75C131.589 70.2145 134.417 70.6278 140 71Z" fill="#3C9CFA"/>
<path d="M120 35C129.513 34.3796 136.736 37.2579 144.188 43.0859C146.98 46.0351 147.946 48.7886 148.125 52.8125C148.084 53.5344 148.043 54.2563 148 55C147.381 54.34 146.762 53.68 146.125 53C136.503 43.4057 128.617 38.639 115 38C115 37.67 115 37.34 115 37C116.65 36.67 118.3 36.34 120 36C120 35.67 120 35.34 120 35Z" fill="#3EADFB"/>
<path d="M88 68C91.4637 69.445 94.6808 71.2668 97.9375 73.125C98.8057 73.5994 99.6739 74.0737 100.568 74.5625C105.936 77.5649 110.467 80.8432 115 85C114.01 85.66 113.02 86.32 112 87C111.504 86.4341 111.007 85.8682 110.496 85.2852C107.306 82.3644 103.851 80.4857 100.063 78.4375C98.6572 77.666 97.2523 76.8938 95.8477 76.1211C95.1844 75.7602 94.5212 75.3992 93.8379 75.0273C92.2498 74.1396 90.7005 73.1831 89.1602 72.2148C87.0308 70.7657 87.0308 70.7657 84.375 71.125C81.7385 72.0963 80.7498 72.8283 79 75C78.212 77.4944 78.212 77.4944 77.8125 80.1875C77.6539 81.0886 77.4954 81.9896 77.332 82.918C77.2225 83.605 77.1129 84.2921 77 85C76.67 85 76.34 85 76 85C75.3724 75.046 75.3724 75.046 77.875 70.875C81.3389 67.8186 83.3995 67.4963 88 68Z" fill="#257DE5"/>
<path d="M29 99C29.99 99.33 30.98 99.66 32 100C33.3326 110.558 33.3326 110.558 32 115C30.02 115.33 28.04 115.66 26 116C26 117.65 26 119.3 26 121C23.4559 118.456 23.6742 117.407 23.625 113.875C23.7057 108.297 24.8864 103.114 29 99Z" fill="#8ACBEA"/>
<path d="M108 139C99.3819 143.826 93.7594 146.519 84 144C81.667 143.958 79.333 143.958 77 144C72.2764 144 70.7011 142.776 67 140C67 139.67 67 139.34 67 139C68.7705 138.946 70.5415 138.907 72.3125 138.875C73.2986 138.852 74.2848 138.829 75.3008 138.805C78 139 78 139 81 141C89.633 141.548 100.303 136.691 108 139Z" fill="#36A9F7"/>
<path d="M33 130C33.7361 130.349 34.4721 130.699 35.2305 131.059C36.6942 131.741 36.6942 131.741 38.1875 132.438C39.1504 132.89 40.1134 133.342 41.1055 133.809C43.9271 135.083 43.9271 135.083 46.8008 135.535C47.5265 135.689 48.2523 135.842 49 136C49.33 136.66 49.66 137.32 50 138C55.28 138 60.56 138 66 138C66 138.33 66 138.66 66 139C60.06 139.495 60.06 139.495 54 140C54 140.66 54 141.32 54 142C53.67 142.99 53.34 143.98 53 145C50.69 144.34 48.38 143.68 46 143C45.67 141.35 45.34 139.7 45 138C43.68 137.67 42.36 137.34 41 137C41 137.99 41 138.98 41 140C38.69 140.66 36.38 141.32 34 142C34 140.35 34 138.7 34 137C34.66 137 35.32 137 36 137C35.6521 135.025 35.6521 135.025 35 133C34.34 132.67 33.68 132.34 33 132C33 131.34 33 130.68 33 130Z" fill="#7386C8"/>
<path d="M111 50C111.33 50.99 111.66 51.98 112 53C112.66 53 113.32 53 114 53C114 53.66 114 54.32 114 55C116.884 55.5846 119.771 56.1438 122.664 56.6836C123.984 56.9348 125.305 57.1861 126.625 57.4375C127.293 57.5593 127.96 57.6811 128.648 57.8066C132.012 58.4557 134.107 59.0714 137 61C139.825 61.5666 142.65 61.9495 145.504 62.3398C148 63 148 63 150 66C150.195 68.2617 150.195 68.2617 150.125 70.6875C150.107 71.4957 150.089 72.304 150.07 73.1367C150.047 73.7516 150.024 74.3665 150 75C149.67 75 149.34 75 149 75C149 72.36 149 69.72 149 67C148.257 67.0413 147.515 67.0825 146.75 67.125C143.912 66.996 142.412 66.4295 140 65C140 64.34 140 63.68 140 63C138.886 63.0619 137.773 63.1238 136.625 63.1875C131.406 63.1875 126.899 61.6708 122 60C121.13 59.7138 120.26 59.4277 119.363 59.1328C117.238 58.4323 115.118 57.7213 113 57C113 56.34 113 55.68 113 55C112.01 55 111.02 55 110 55C110.33 53.35 110.66 51.7 111 50Z" fill="#2FA2FA"/>
<path d="M148 116C147.67 116.99 147.34 117.98 147 119C147.66 119.33 148.32 119.66 149 120C149 121.98 149 123.96 149 126C144.25 126.125 144.25 126.125 142 125C142 127.31 142 129.62 142 132C140.35 132.33 138.7 132.66 137 133C136.01 131.68 135.02 130.36 134 129C134.433 128.529 134.866 128.059 135.312 127.574C135.869 126.952 136.426 126.329 137 125.688C137.835 124.765 137.835 124.765 138.688 123.824C140.292 121.969 140.292 121.969 140 119C145.75 116 145.75 116 148 116Z" fill="#6A89CE"/>
<path d="M82 36C90.4309 41.3045 90.4309 41.3045 91.7461 45.2227C91.8299 45.8092 91.9137 46.3957 92 47C88.2162 45.2148 84.9281 42.9334 81.5117 40.5352C75.5419 36.8864 70.5614 35.47 63.6875 35.5625C62.9449 35.565 62.2023 35.5675 61.4373 35.5701C56.0159 35.7029 51.6596 36.7394 46.7852 39.2227C46.1961 39.4792 45.607 39.7357 45 40C44.34 39.67 43.68 39.34 43 39C44.6029 38.185 46.2074 37.3731 47.8125 36.5625C48.7058 36.11 49.5991 35.6576 50.5195 35.1914C59.4001 30.926 73.1941 31.6427 82 36Z" fill="#00C3F3"/>
<path d="M145 42C151.75 46.6606 156.384 53.8982 158 62C158.08 63.7329 158.108 65.4685 158.098 67.2031C158.094 68.1828 158.091 69.1625 158.088 70.1719C158.08 71.1877 158.071 72.2034 158.062 73.25C158.058 74.2812 158.053 75.3125 158.049 76.375C158.037 78.9167 158.021 81.4583 158 84C157.01 84.495 157.01 84.495 156 85C155.974 83.6839 155.948 82.3677 155.922 81.0117C155.687 63.9817 155.687 63.9817 147 50C145.555 47.0383 145 45.3127 145 42Z" fill="#73D7F2"/>
<path d="M112.25 120.375C112.827 120.581 113.405 120.788 114 121C113.01 121.33 112.02 121.66 111 122C111.66 122.33 112.32 122.66 113 123C113 123.99 113 124.98 113 126C113.99 126 114.98 126 116 126C115.332 128.387 115.332 128.387 114 131C111.574 132.145 111.574 132.145 108.688 132.813C107.743 133.046 106.798 133.279 105.824 133.52C103.149 133.975 100.706 134.094 98 134C99.3052 131.39 100.358 131.319 103.062 130.375C103.796 130.115 104.529 129.854 105.285 129.586C105.851 129.393 106.417 129.199 107 129C106.67 128.34 106.34 127.68 106 127C106.66 126.67 107.32 126.34 108 126C103.38 126 98.76 126 94 126C96.8364 124.109 98.2091 123.61 101.438 123C103.922 122.529 105.881 122.06 108.145 120.914C110 120 110 120 112.25 120.375Z" fill="#D8E8FD"/>
<path d="M144.25 38C151.269 43.5791 156.083 50.5112 159 59C159.076 61.3321 159.091 63.6685 159 66C157.506 63.1438 156.349 60.2773 155.25 57.25C151.499 47.872 145.605 41.4229 136.641 36.7773C128.371 33.2814 119.846 33.2074 111 33C111 32.67 111 32.34 111 32C123.091 29.4546 134.026 30.874 144.25 38Z" fill="#061322"/>
<path d="M90 131C86.6949 132.943 83.9442 133.361 80.1406 133.633C79.0256 133.717 77.9105 133.8 76.7617 133.887C75.6029 133.965 74.444 134.044 73.25 134.125C72.0757 134.211 70.9013 134.298 69.6914 134.387C66.7948 134.599 63.8975 134.8 61 135C65.62 135.66 70.24 136.32 75 137C75 137.33 75 137.66 75 138C66.75 138 58.5 138 50 138C49.67 138.66 49.34 139.32 49 140C49 139.01 49 138.02 49 137C50.65 136.67 52.3 136.34 54 136C54 135.34 54 134.68 54 134C57.2724 132.067 59.8365 131.707 63.6133 131.586C64.6967 131.547 65.7802 131.509 66.8965 131.469C68.0238 131.438 69.1511 131.407 70.3125 131.375C71.4282 131.336 72.5439 131.298 73.6934 131.258C79.1309 131.077 84.5596 130.953 90 131Z" fill="#CAE1FC"/>
<path d="M112.438 112.812C112.953 113.204 113.469 113.596 114 114C113.01 115.485 113.01 115.485 112 117C114.64 117 117.28 117 120 117C119.67 117.66 119.34 118.32 119 119C111.779 121.136 104.525 122.451 97 122C97.33 121.34 97.66 120.68 98 120C98.66 120 99.32 120 100 120C100 119.34 100 118.68 100 118C100.66 118 101.32 118 102 118C102.33 117.01 102.66 116.02 103 115C109.057 111.686 109.057 111.686 112.438 112.812Z" fill="#4E90E5"/>
<path d="M158 69C161.356 70.2633 163.633 71.2592 166 74C165.67 74.66 165.34 75.32 165 76C164.01 75.67 163.02 75.34 162 75C161.939 76.048 161.879 77.096 161.816 78.1758C161.732 79.5547 161.647 80.9336 161.562 82.3125C161.504 83.3479 161.504 83.3479 161.443 84.4043C161.251 87.4716 160.977 90.0697 160 93C157.438 94.1875 157.438 94.1875 155 95C155.133 94.38 155.266 93.7599 155.402 93.1211C157.005 85.0844 157.581 77.1702 158 69Z" fill="#5DA8CE"/>
<path d="M119 140C119.99 140.33 120.98 140.66 122 141C117.982 143.968 113.934 146.88 109.829 149.726C108.256 150.822 106.7 151.944 105.148 153.07C98.4186 157.442 93.0481 157.265 85.3828 156.137C81.4741 154.823 79.6587 153.098 77 150C80 150 80 150 82.9375 151.5C88.1971 153.776 93.3886 153.962 99 153C105.797 150.076 111.742 145.721 117.379 140.969C117.914 140.649 118.449 140.329 119 140Z" fill="#3E5DA1"/>
<path d="M134 125C130.196 128.919 126.184 132.491 122 136C122 135.01 122 134.02 122 133C121.257 133.309 120.515 133.619 119.75 133.938C117.493 134.81 115.355 135.477 113 136C114.812 134 114.812 134 117 132C117.99 132 118.98 132 120 132C120 131.34 120 130.68 120 130C119.423 130.351 118.845 130.701 118.25 131.063C115.602 132.166 114.668 131.802 112 131C114.537 129.988 117.079 128.99 119.625 128C120.338 127.714 121.051 127.428 121.785 127.133C126.02 125.501 129.383 124.65 134 125Z" fill="#32A2EF"/>
<path d="M120 130C120 130.66 120 131.32 120 132C118.276 132.988 116.545 133.965 114.812 134.938C113.85 135.483 112.887 136.028 111.895 136.59C107.274 138.841 103.28 139.124 98.1875 139.062C96.7238 139.049 96.7238 139.049 95.2305 139.035C94.1264 139.018 94.1264 139.018 93 139C93.33 138.34 93.66 137.68 94 137C96.0664 136.586 96.0664 136.586 98.5625 136.375C99.3888 136.3 100.215 136.225 101.066 136.148C102.024 136.075 102.024 136.075 103 136C103 135.01 103 134.02 103 133C103.915 132.867 104.83 132.734 105.773 132.598C106.962 132.421 108.15 132.244 109.375 132.062C110.558 131.888 111.742 131.714 112.961 131.535C115.526 131.083 117.458 130 120 130Z" fill="#245CF9"/>
<path d="M64 96C66.0266 99.0399 66.3641 100.502 67 104C67.928 107.364 68.8965 110.69 70 114C72.725 114.998 72.725 114.998 75.9375 115.625C81.8887 116.944 81.8887 116.944 84 118C86.008 117.719 88.0101 117.389 90 117C89.34 117.99 88.68 118.98 88 120C82.3738 120.873 76.0403 121.03 70.875 118.375C66.0556 114.394 64.6101 110.101 64 104C63.9322 101.327 63.9539 98.675 64 96Z" fill="#8ABEF3"/>
<path d="M91 132C90.67 132.66 90.34 133.32 90 134C87.2773 134.633 87.2773 134.633 83.9375 135.125C82.2804 135.376 82.2804 135.376 80.5898 135.633C79.3079 135.815 79.3079 135.815 78 136C79.32 136.66 80.64 137.32 82 138C76.639 139.129 71.4469 139.097 66 139C67.32 138.34 68.64 137.68 70 137C66.7 136.67 63.4 136.34 60 136C60.33 135.34 60.66 134.68 61 134C63.3291 133.589 63.3291 133.589 66.3906 133.367C67.4928 133.283 68.5949 133.2 69.7305 133.113C71.4726 132.995 71.4726 132.995 73.25 132.875C74.396 132.789 75.542 132.702 76.7227 132.613C81.4923 132.263 86.2156 131.948 91 132Z" fill="#AED4FE"/>
<path d="M104 127C90.7108 134.68 71.6181 132.329 57 132C57.33 131.34 57.66 130.68 58 130C58.8011 129.98 59.6021 129.96 60.4275 129.94C64.0978 129.844 67.7676 129.735 71.4375 129.625C72.6976 129.594 73.9576 129.563 75.2559 129.531C81.4285 129.338 87.1986 128.967 93.1873 127.432C96.791 126.573 100.322 126.883 104 127Z" fill="#ACD5FF"/>
<path d="M161 74C167 76 167 76 168.875 79.1875C170.005 83.0177 170.243 86.0329 170 90C169.67 90 169.34 90 169 90C168.67 88.02 168.34 86.04 168 84C167.34 84.66 166.68 85.32 166 86C165.01 86 164.02 86 163 86C163 86.66 163 87.32 163 88C162.34 88 161.68 88 161 88C161 83.38 161 78.76 161 74Z" fill="#9EC9E5"/>
<path d="M62 106C64 108 64 108 64.75 110.312C66.4953 114.065 68.666 115.551 72 118C78.2084 120.069 85.6367 120.019 91.625 117.438C92.4087 116.963 93.1925 116.489 94 116C94.99 116.33 95.98 116.66 97 117C95.5589 119.882 93.3664 120.365 90.4414 121.391C82.9918 123.25 74.8161 122.641 68 119C64.5014 116.238 63.1106 113.528 62.1875 109.125C62.1256 108.094 62.0637 107.062 62 106Z" fill="#71B6F4"/>
<path d="M108 104C90.5764 114.761 90.5764 114.761 84.668 113.504C82.4375 112.688 82.4375 112.688 79 111C79.33 110.34 79.66 109.68 80 109C80.66 109.33 81.32 109.66 82 110C88.2575 110.913 91.4266 108.761 96.6328 105.406C100.66 103.014 103.598 102.533 108 104Z" fill="#62ABE3"/>
<path d="M113 33C124.782 32.4276 135.533 33.0682 145 41C145 41.99 145 42.98 145 44C140.345 42.3645 140.345 42.3645 138.605 40.5273C133.162 35.3491 123.612 35.579 116.59 35.3086C115.735 35.2068 114.881 35.1049 114 35C113.67 34.34 113.34 33.68 113 33Z" fill="#19CDF6"/>
<path d="M87.1875 125.938C88.8175 125.951 88.8175 125.951 90.4805 125.965C91.3119 125.976 92.1434 125.988 93 126C87.2266 131.773 72.1522 130.357 64.2229 130.658C59.976 130.715 59.976 130.715 56 132C56 131.01 56 130.02 56 129C58.7101 128.097 60.5378 127.83 63.3438 127.719C64.1778 127.681 65.0118 127.644 65.8711 127.605C68.5 127.5 68.5 127.5 71.1289 127.395C71.9629 127.357 72.797 127.32 73.6562 127.281C74.4174 127.251 75.1786 127.221 75.9629 127.189C79.8767 126.825 83.1406 125.894 87.1875 125.938Z" fill="#D6E9FC"/>
<path d="M55 123C55.2887 123.619 55.5775 124.238 55.875 124.875C56.9372 127.133 56.9372 127.133 59 129C58.01 129 57.02 129 56 129C56 129.99 56 130.98 56 132C56.99 132.33 57.98 132.66 59 133C59 133.33 59 133.66 59 134C57.35 134 55.7 134 54 134C54 134.66 54 135.32 54 136C54.99 136.33 55.98 136.66 57 137C54.69 137 52.38 137 50 137C49.6906 136.051 49.3812 135.103 49.0625 134.125C48.1261 131.139 48.1261 131.139 47 129C47.9488 128.752 48.8975 128.505 49.875 128.25C53.0869 127.314 53.0869 127.314 54.375 124.875C54.5812 124.256 54.7875 123.637 55 123Z" fill="#F4F9FE"/>
<path d="M118.938 37.8125C119.717 37.826 120.496 37.8396 121.299 37.8535C123.2 37.8885 125.1 37.9423 127 38C127.495 40.475 127.495 40.475 128 43C123.545 43.495 123.545 43.495 119 44C119.99 42.68 120.98 41.36 122 40C115.09 39.6231 108.622 40.1835 102.98 44.5703C101.793 45.6451 100.632 46.7501 99.5078 47.8906C99.0102 48.2567 98.5127 48.6228 98 49C97.01 48.67 96.02 48.34 95 48C96.1767 46.8844 97.3671 45.7831 98.5625 44.6875C99.2238 44.0726 99.8851 43.4577 100.566 42.8242C106.51 38.369 111.783 37.5734 118.938 37.8125Z" fill="#5BB7FB"/>
<path d="M76 74C75.67 74.99 75.34 75.98 75 77C72.7148 77.9492 72.7148 77.9492 69.9375 78.6875C68.5588 79.0646 68.5588 79.0646 67.1523 79.4492C66.4421 79.631 65.7318 79.8127 65 80C67.5427 76.186 71.2722 74 76 74ZM64 80C64 80.99 64 81.98 64 83C63 84 62 85 61 86C58.7117 90.356 58.7634 94.5106 58.875 99.3125C58.884 100.053 58.893 100.794 58.9023 101.557C58.9258 103.371 58.9616 105.186 59 107C58.34 107 57.68 107 57 107C54.5558 102.112 55.2079 94.6226 56.7539 89.5039C58.5813 85.7131 60.7795 82.7604 64 80Z" fill="#3CABFA"/>
<path d="M120 35C120.33 35.66 120.66 36.32 121 37C120.154 37.1702 119.309 37.3403 118.438 37.5156C109.258 39.4768 102.129 41.7618 95 48C95.476 43.7164 97.8387 41.7398 101 39C107.424 35.2529 112.745 34.877 120 35Z" fill="#1499FA"/>
<path d="M48 37C47.2556 37.4022 47.2556 37.4022 46.4961 37.8125C36.4905 43.5842 31.6299 51.1252 28 62C27.6332 63.6596 27.2879 65.3249 27 67C26.67 67 26.34 67 26 67C25.071 57.555 28.877 51.6845 34 44C34.66 44 35.32 44 36 44C36.2784 43.1337 36.2784 43.1337 36.5625 42.25C39.1383 38.2184 43.2421 35.414 48 37Z" fill="#07378D"/>
<path d="M120 35C125.954 34.6117 131.553 35.448 137 38C138.797 40.1094 138.797 40.1094 140 42C138.582 41.8849 137.166 41.7575 135.75 41.625C134.961 41.5554 134.172 41.4858 133.359 41.4141C131 41 131 41 129.094 40C126.305 38.668 123.823 38.5754 120.75 38.375C119.672 38.3002 118.595 38.2255 117.484 38.1484C116.665 38.0995 115.845 38.0505 115 38C115 37.67 115 37.34 115 37C116.65 36.67 118.3 36.34 120 36C120 35.67 120 35.34 120 35Z" fill="#2FA8FA"/>
<path d="M76 79C76 87.25 76 95.5 76 104C75.67 104 75.34 104 75 104C75 96.41 75 88.82 75 81C72.36 83.31 69.72 85.62 67 88C65.02 88.99 65.02 88.99 63 90C63.5786 86.0945 65.2698 83.804 68 81C70.7824 79.8314 72.9791 79 76 79Z" fill="#6EBBF7"/>
<path d="M60 119C63.0122 119.644 65.5166 120.65 68.25 122.062C68.9564 122.425 69.6628 122.787 70.3906 123.16C70.9217 123.437 71.4528 123.714 72 124C72 124.66 72 125.32 72 126C67.71 126 63.42 126 59 126C59.33 123.69 59.66 121.38 60 119Z" fill="#227EE5"/>
<path d="M115 86C117.548 89.822 117.68 91.4661 117 96C114.615 99.7706 111.903 102.491 107.531 103.66C105.333 103.907 103.211 104.035 101 104C103.804 101.621 106.346 99.8431 109.688 98.375C112.256 97.0014 112.887 96.3142 113.891 93.5234C114.386 91.0132 114.762 88.5466 115 86Z" fill="#3895DE"/>
<path d="M167 83C167.66 83.33 168.32 83.66 169 84C169 86.31 169 88.62 169 91C168.34 90.67 167.68 90.34 167 90C166.629 90.66 166.257 91.32 165.875 92C164 94 164 94 160.812 94.25C159.884 94.1675 158.956 94.085 158 94C158.66 93.67 159.32 93.34 160 93C160.656 90.4727 160.656 90.4727 161 88C161.66 88 162.32 88 163 88C163 87.34 163 86.68 163 86C163.99 86 164.98 86 166 86C166.33 85.01 166.66 84.02 167 83Z" fill="#C4E4F5"/>
<path d="M58 143C62.9893 142.221 66.648 142.226 71.1133 144.781C73.8206 146.776 76.4404 148.82 79 151C75.1171 151 73.5325 149.621 70.3125 147.5C68.8217 146.525 68.8217 146.525 67.3008 145.531C66.1619 144.773 66.1619 144.773 65 144C65 144.66 65 145.32 65 146C66.32 146.66 67.64 147.32 69 148C68.67 148.66 68.34 149.32 68 150C67.34 149.34 66.68 148.68 66 148C62.9165 147.833 62.9165 147.833 60 148C59.34 146.35 58.68 144.7 58 143Z" fill="#6480C1"/>
<path d="M163 102C163 105.845 162.166 108.848 160 112C157.512 113.865 155.014 115.213 152 116C149.746 115.594 149.746 115.594 148 115C148.664 114.481 149.328 113.961 150.012 113.426C154.586 109.813 159.011 106.255 163 102Z" fill="#859DD2"/>
<path d="M97 74C103.942 75.6441 111.032 80.0475 115 86C114.01 86.33 113.02 86.66 112 87C111.459 86.407 110.917 85.8141 110.359 85.2031C107.809 82.8219 105.335 81.3658 102.25 79.75C101.265 79.2292 100.28 78.7084 99.2656 78.1719C98.518 77.7852 97.7703 77.3984 97 77C97 76.01 97 75.02 97 74Z" fill="#2C7CDA"/>
<path d="M26 108C30.7059 108.706 30.7059 108.706 32 110C32.0406 111.666 32.0427 113.334 32 115C30.02 115.33 28.04 115.66 26 116C26 117.65 26 119.3 26 121C25.67 121 25.34 121 25 121C24.9731 119.021 24.9537 117.042 24.9375 115.062C24.9259 113.96 24.9143 112.858 24.9023 111.723C25 109 25 109 26 108Z" fill="#BBE1F1"/>
<path d="M36 51C36.33 51 36.66 51 37 51C37 53.97 37 56.94 37 60C36.01 60.33 35.02 60.66 34 61C33.34 66.61 32.68 72.22 32 78C31.67 78 31.34 78 31 78C30.5794 68.0605 31.3677 59.882 36 51Z" fill="#4DC8FB"/>
<path d="M165 99C166.642 102.283 165.519 105.425 165 109C164.34 109 163.68 109 163 109C162.835 109.743 162.67 110.485 162.5 111.25C160.323 115.241 157.083 116.3 153 118C152.67 117.01 152.34 116.02 152 115C153.825 114.381 153.825 114.381 155.688 113.75C161.031 111.169 162.247 106.821 164.188 101.484C164.456 100.665 164.724 99.8447 165 99Z" fill="#5271BD"/>
<path d="M33 130C36.63 131.65 40.26 133.3 44 135C42.68 135.33 41.36 135.66 40 136C40.33 137.32 40.66 138.64 41 140C38.69 140.66 36.38 141.32 34 142C34 140.35 34 138.7 34 137C34.66 137 35.32 137 36 137C35.6521 135.025 35.6521 135.025 35 133C34.34 132.67 33.68 132.34 33 132C33 131.34 33 130.68 33 130Z" fill="#A0B0D8"/>
<path d="M138 34C139.816 35.6055 139.816 35.6055 141 37C140.01 37.495 140.01 37.495 139 38C137.458 37.4289 135.941 36.7907 134.438 36.125C126.816 33.1778 119.072 33.1893 111 33C111 32.67 111 32.34 111 32C120.207 30.0616 129.217 30.4489 138 34Z" fill="#032840"/>
<path d="M117 53C132.865 52.6695 132.865 52.6695 139 56C140.812 58.125 140.812 58.125 142 60C139.03 59.505 139.03 59.505 136 59C136 58.34 136 57.68 136 57C134.796 56.8788 133.592 56.7577 132.352 56.6328C130.776 56.464 129.2 56.2947 127.625 56.125C126.831 56.0464 126.037 55.9677 125.219 55.8867C119.227 55.2266 119.227 55.2266 117 53Z" fill="#5DB7FC"/>
<path d="M33 116C33.33 116.99 33.66 117.98 34 119C33.34 119 32.68 119 32 119C31.7319 119.639 31.4638 120.279 31.1875 120.937C30 123 30 123 27 124C26 123 26 123 25.9375 119.437C25.9581 118.303 25.9787 117.169 26 116C28.6666 114.667 30.1668 115.329 33 116Z" fill="#D4EAF5"/>
<path d="M113 86C113.66 86 114.32 86 115 86C115.61 93.1983 115.61 93.1983 112.812 96.875C110.217 98.8357 108.086 100.03 105 101C104.34 100.34 103.68 99.68 103 99C103.554 98.7319 104.109 98.4638 104.68 98.1875C109.135 95.8591 109.135 95.8591 111.977 91.8867C112.593 89.4575 112.593 89.4575 113 86Z" fill="#184C92"/>
<path d="M148 116C147.67 116.99 147.34 117.98 147 119C147.66 119.33 148.32 119.66 149 120C149 121.98 149 123.96 149 126C147.35 126 145.7 126 144 126C144 124.35 144 122.7 144 121C142.35 121 140.7 121 139 121C140.631 117.738 144.38 116 148 116Z" fill="#869DD0"/>
<path d="M25 69C25.33 69 25.66 69 26 69C26.1096 70.0158 26.2191 71.0316 26.332 72.0781C27.2959 80.5851 28.6537 88.7411 31 97C30.34 97 29.68 97 29 97C24.9489 87.451 24.5358 79.1615 25 69Z" fill="#0B2B67"/>
<path d="M57 119C58 121 58 121 58 125C60.2365 126.118 61.6489 126.194 64.1328 126.316C64.9385 126.358 65.7441 126.4 66.5742 126.443C67.416 126.483 68.2577 126.522 69.125 126.562C69.9745 126.606 70.824 126.649 71.6992 126.693C73.7993 126.8 75.8996 126.9 78 127C78 127.33 78 127.66 78 128C74.5418 128.087 71.0839 128.14 67.625 128.188C66.1477 128.225 66.1477 128.225 64.6406 128.264C63.2291 128.278 63.2291 128.278 61.7891 128.293C60.9198 128.309 60.0504 128.324 59.1548 128.341C58.4437 128.228 57.7326 128.116 57 128C56.34 127.01 55.68 126.02 55 125C53.68 125.33 52.36 125.66 51 126C51.66 124.68 52.32 123.36 53 122C53.99 122 54.98 122 56 122C56.33 121.01 56.66 120.02 57 119Z" fill="#71B6ED"/>
<path d="M63 139C67.3486 139.564 70.1783 141.154 73.8125 143.562C75.2762 144.523 75.2762 144.523 76.7695 145.504C77.5056 145.998 78.2416 146.491 79 147C78.67 147.66 78.34 148.32 78 149C74.2935 148.369 71.8538 146.723 68.8125 144.562C67.9321 143.945 67.0516 143.328 66.1445 142.691C64 141 64 141 63 139Z" fill="#2A3A53"/>
<path d="M137 121C138.32 121.33 139.64 121.66 141 122C139.952 123.468 138.886 124.924 137.812 126.375C137.221 127.187 136.629 127.999 136.02 128.836C133.804 131.21 132.066 132.036 129 133C128.67 132.01 128.34 131.02 128 130C128.743 129.443 129.485 128.886 130.25 128.312C132.917 126.07 134.916 123.779 137 121Z" fill="#2F4366"/>
<path d="M125 41C125 41.33 125 41.66 125 42C124.216 42.0825 123.433 42.165 122.625 42.25C119.934 42.7305 119.934 42.7305 118.75 44.6875C117.859 47.4363 117.39 50.1398 117 53C116.01 52.67 115.02 52.34 114 52C113.67 49.69 113.34 47.38 113 45C117.186 41.8108 119.706 40.4958 125 41Z" fill="#55B4FC"/>
<path d="M63 117C63.5156 117.268 64.0312 117.536 64.5625 117.812C67.664 119.323 70.8226 120.656 74 122C74 123.32 74 124.64 74 126C73 127 73 127 70.0586 127.098C68.2662 127.08 68.2662 127.08 66.4375 127.062C64.6412 127.049 64.6412 127.049 62.8086 127.035C61.8818 127.024 60.9549 127.012 60 127C60 126.67 60 126.34 60 126C63.96 126 67.92 126 72 126C72 125.34 72 124.68 72 124C71.2575 123.773 70.515 123.546 69.75 123.312C66.4886 121.756 65.0711 119.915 63 117Z" fill="#4291E8"/>
<path d="M26 123C27.1754 123.927 28.3401 124.867 29.5 125.812C30.1497 126.335 30.7994 126.857 31.4688 127.395C33 129 33 129 33 132C33.99 132.33 34.98 132.66 36 133C36 134.32 36 135.64 36 137C35.01 137.33 34.02 137.66 33 138C32.7461 137.397 32.4921 136.793 32.2305 136.172C30.4691 132.082 28.7978 128.497 26 125C26 124.34 26 123.68 26 123Z" fill="#7187C2"/>
<path d="M27 97C28.32 97.33 29.64 97.66 31 98C30.34 98 29.68 98 29 98C28.5669 99.0828 28.5669 99.0828 28.125 100.188C27.0833 102.792 26.0417 105.396 25 108C24.34 108 23.68 108 23 108C23 111.63 23 115.26 23 119C22.67 119 22.34 119 22 119C21.4469 105.193 21.4469 105.193 25 100C25.66 99.01 26.32 98.02 27 97Z" fill="#3558AF"/>
<path d="M106.129 138.418C106.746 138.61 107.364 138.802 108 139C95.6993 145.888 95.6993 145.888 88 145C88 144.34 88 143.68 88 143C89.1041 142.836 89.1041 142.836 90.2305 142.668C94.9311 141.904 102.135 137.634 106.129 138.418Z" fill="#1FA3FA"/>
<path d="M131 110C131 110.66 131 111.32 131 112C121.59 116.592 121.59 116.592 117 116C121.539 111.137 124.287 109.695 131 110Z" fill="#1373E4"/>
<path d="M31 96C33.1785 99.2678 34.4976 102.381 36 106C35.34 106 34.68 106 34 106C34.33 110.29 34.66 114.58 35 119C32 116 32 116 31.7422 113.223C31.786 112.18 31.8298 111.137 31.875 110.062C32.1135 104.943 32.1135 104.943 31 100C30.34 99.34 29.68 98.68 29 98C29.66 98 30.32 98 31 98C31 97.34 31 96.68 31 96Z" fill="#6099C8"/>
<path d="M78 42C82.7119 44.6743 82.7119 44.6743 84.4375 46.625C86.7279 48.6406 89.0357 48.6706 92 49C92 49.66 92 50.32 92 51C93.98 51 95.96 51 98 51C98 51.33 98 51.66 98 52C88.7561 53.0705 88.7561 53.0705 84.5586 50.5117C82.5849 48.7561 80.7692 46.9599 79 45C78.34 44.34 77.68 43.68 77 43C77.33 42.67 77.66 42.34 78 42Z" fill="#1398FA"/>
<path d="M97 134C93.7648 137.235 90.0036 136.971 85.5703 137.098C83.8649 137.08 83.8649 137.08 82.125 137.063C80.9726 137.053 79.8202 137.044 78.6328 137.035C77.764 137.024 76.8952 137.012 76 137C80.7347 132.265 90.6924 133.881 97 134Z" fill="#D5E5FE"/>
<path d="M27 79C29.0752 82.1129 30.2441 85.0052 31.5625 88.5C31.9969 89.6447 32.4313 90.7894 32.8789 91.9688C33.6182 93.9675 34.3261 95.9782 35 98C33.1875 97.5 33.1875 97.5 31 96C28.3428 90.3904 27.4135 85.1603 27 79Z" fill="#21A3F1"/>
<path d="M59 107C61 110 61 110 61 112C61.5981 112.248 62.1963 112.495 62.8125 112.75C65.3077 114.176 66.2928 115.724 68 118C70.0833 119.252 70.0833 119.252 72 120C71.01 120.495 71.01 120.495 70 121C67.9062 120.145 67.9062 120.145 65.5 118.812C64.7059 118.386 63.9119 117.959 63.0938 117.52C60.772 115.835 59.9725 114.672 59 112C58.875 109.25 58.875 109.25 59 107Z" fill="#48A9F7"/>
<path d="M142 75C142.66 75 143.32 75 144 75C143.25 82.75 143.25 82.75 141 85C139.012 85.3976 137.011 85.7378 135 86C134.67 85.34 134.34 84.68 134 84C134.741 83.5282 134.741 83.5282 135.496 83.0469C136.137 82.6189 136.777 82.1909 137.438 81.75C138.076 81.3323 138.714 80.9147 139.371 80.4844C141.299 78.7275 141.615 77.5391 142 75Z" fill="#1C82F8"/>
<path d="M161 74C163.875 74.625 163.875 74.625 167 76C168.375 79.125 168.375 79.125 169 82C166.525 81.01 166.525 81.01 164 80C163.01 81.32 162.02 82.64 161 84C161 80.7 161 77.4 161 74Z" fill="#79CBEC"/>
<path d="M158 80C158.66 80 159.32 80 160 80C160.512 86.4014 160.119 89.9801 156 95C154.761 91.2823 155.43 89.5611 156.438 85.8125C156.869 84.1825 156.869 84.1825 157.309 82.5195C157.537 81.6881 157.765 80.8566 158 80Z" fill="#244064"/>
<path d="M35 106C38.3194 109.137 41.0546 112.58 43.75 116.25C44.3668 117.081 44.3668 117.081 44.9961 117.93C46.0004 119.284 47.0006 120.642 48 122C47.01 122 46.02 122 45 122C43.0273 119.918 43.0273 119.918 40.9375 117.188C39.8992 115.848 39.8992 115.848 38.8398 114.48C35 109.304 35 109.304 35 106Z" fill="#213955"/>
<path d="M168 78C170.062 79.677 170.929 80.5241 171.328 83.1992C171.302 84.0204 171.277 84.8415 171.25 85.6875C171.224 86.5654 171.198 87.4432 171.172 88.3477C170.94 91.9332 170.527 95.4457 170 99C168.68 98.67 167.36 98.34 166 98C166.495 96.8244 166.99 95.6487 167.5 94.4375C169.602 88.826 169.404 83.7912 168 78Z" fill="#526CB5"/>
<path d="M94 116C94.99 116.33 95.98 116.66 97 117C95.5646 119.871 93.3803 120.352 90.4766 121.402C86.0234 122.477 81.5481 122.226 77 122C77 121.67 77 121.34 77 121C77.5801 120.963 78.1602 120.925 78.7578 120.887C83.8276 120.46 87.5314 119.616 92 117C92.66 116.67 93.32 116.34 94 116Z" fill="#77ACEC"/>
<path d="M148 116C149.32 116.33 150.64 116.66 152 117C151.835 117.536 151.67 118.072 151.5 118.625C150.891 121.115 150.891 121.115 151 124.188C151 125.116 151 126.044 151 127C150 128 150 128 147.438 128.062C146.633 128.042 145.829 128.021 145 128C145.33 127.34 145.66 126.68 146 126C146.99 126 147.98 126 149 126C149 124.02 149 122.04 149 120C148.01 119.67 147.02 119.34 146 119C146.66 118.01 147.32 117.02 148 116Z" fill="#5073C3"/>
<path d="M121 113C120.01 113.66 119.02 114.32 118 115C120.31 115 122.62 115 125 115C122.319 117.681 120.608 117.387 116.875 117.625C115.779 117.7 114.684 117.775 113.555 117.852C112.712 117.901 111.869 117.95 111 118C114.418 113.24 114.418 113.24 117.125 112.125C119 112 119 112 121 113Z" fill="#3584E5"/>
<path d="M75 33C81.7299 33.3451 86.8656 37.2185 91.7695 41.5703C93 43 93 43 93 45C92.34 45 91.68 45 91 45C90.2781 44.2575 89.5562 43.515 88.8125 42.75C84.7525 38.7802 80.1082 36.4519 75 34C75 33.67 75 33.34 75 33Z" fill="#001A28"/>
<path d="M92 108C92.66 108.33 93.32 108.66 94 109C93.3125 110.938 93.3125 110.938 92 113C88.4769 114.554 86.1466 113.848 82.6875 112.562C81.4533 112.054 80.2223 111.537 79 111C79.33 110.34 79.66 109.68 80 109C80.66 109.33 81.32 109.66 82 110C87.3297 110.341 87.3297 110.341 92 108Z" fill="#81B3DB"/>
<path d="M112 40C110.987 40.4718 110.987 40.4718 109.953 40.9531C103.324 44.0633 103.324 44.0633 98 49C97.01 48.67 96.02 48.34 95 48C105.593 38.1694 105.593 38.1694 112 40Z" fill="#B6DFFD"/>
<path d="M77 149C82 151 82 151 84.1875 152.062C88.3704 153.457 92.62 153.677 97 154C97 154.33 97 154.66 97 155C94.6023 155.136 92.2122 155.234 89.8125 155.312C89.139 155.354 88.4654 155.396 87.7715 155.439C83.7226 155.538 82.1827 155.15 79.0117 152.543C77 150 77 150 77 149Z" fill="#3C538A"/>
<path d="M64 96C66.0266 99.0399 66.3641 100.502 67 104C67.6558 106.336 68.3221 108.67 69 111C69.3414 112.331 69.6793 113.664 70 115C69.34 115 68.68 115 68 115C63.6679 109.108 63.8792 103.004 64 96Z" fill="#94CFFC"/>
<path d="M108 35C107.336 35.3145 106.672 35.6291 105.988 35.9531C101.243 38.253 96.954 40.4414 93 44C93 43.01 93 42.02 93 41C94.6094 39.4297 94.6094 39.4297 96.75 37.875C97.4461 37.3568 98.1422 36.8386 98.8594 36.3047C102.35 34.1774 104.078 33.6927 108 35Z" fill="#04439B"/>
<path d="M130 126C128.21 126.977 126.419 127.953 124.629 128.93C122.834 129.914 122.834 129.914 122 132C121.34 132 120.68 132 120 132C120 131.34 120 130.68 120 130C119.423 130.351 118.845 130.701 118.25 131.062C115.602 132.166 114.668 131.802 112 131C114.622 129.97 117.247 128.951 119.875 127.937C120.621 127.643 121.368 127.348 122.137 127.045C127.773 124.887 127.773 124.887 130 126Z" fill="#68A4FB"/>
<path d="M77 99C77.33 99 77.66 99 78 99C78.1856 100.093 78.3713 101.186 78.5625 102.312C79.5752 105.949 79.5752 105.949 81.6914 107.133C83.8365 108.059 83.8365 108.059 87 109C87 109.66 87 110.32 87 111C80.748 110.41 80.748 110.41 78.0625 108.938C76.3004 105.724 76.8222 102.616 77 99Z" fill="#09285D"/>
<path d="M136 71C137.65 71.33 139.3 71.66 141 72C141.875 75.1875 141.875 75.1875 142 79C140.24 81.4395 138.641 82.3749 136 84C135.01 83.67 134.02 83.34 133 83C133.804 82.4638 134.609 81.9275 135.438 81.375C138.465 78.5689 138.725 77.0317 139 73C138.01 72.34 137.02 71.68 136 71Z" fill="#2E8EF9"/>
<path d="M102 114C102.66 114.33 103.32 114.66 104 115C101.245 118.061 99.0043 119.899 95 121C92.6875 120.625 92.6875 120.625 91 120C91.7631 119.732 92.5263 119.464 93.3125 119.188C95.9231 118.034 97.0739 117.014 99 115C99.99 114.67 100.98 114.34 102 114Z" fill="#65A4EC"/>
<path d="M34 106C36.2666 108.906 37.7443 111.523 39 115C37.02 115.99 37.02 115.99 35 117C34 116 34 116 33.9023 113.715C33.9139 112.798 33.9255 111.882 33.9375 110.938C33.9465 110.018 33.9555 109.099 33.9648 108.152C33.9764 107.442 33.988 106.732 34 106Z" fill="#4B68AA"/>
<path d="M166 99C166.99 99.33 167.98 99.66 169 100C168.67 100.516 168.34 101.031 168 101.562C166.763 104.12 166.763 104.12 167.062 107.625C167.042 108.739 167.021 109.852 167 111C166.01 111.66 165.02 112.32 164 113C164.141 111.041 164.288 109.083 164.438 107.125C164.519 106.034 164.6 104.944 164.684 103.82C165 101 165 101 166 99Z" fill="#2B4CAB"/>
<path d="M127 131C125.35 132.65 123.7 134.3 122 136C122 135.01 122 134.02 122 133C121.257 133.309 120.515 133.619 119.75 133.938C117.493 134.809 115.355 135.477 113 136C117.223 131.151 120.783 130.822 127 131Z" fill="#39BCF3"/>
<path d="M29 99C29.99 99.33 30.98 99.66 32 100C32 101.32 32 102.64 32 104C29.6679 105.206 27.5036 106.165 25 107C26.75 101.25 26.75 101.25 29 99Z" fill="#63BEE6"/>
<path d="M114 34C110.197 37.8027 104.099 38.5724 99 40C102.731 35.4918 108.199 32.0664 114 34Z" fill="#06B4F0"/>
<path d="M122 105C122 108 122 108 119.812 110.625C116.993 113.006 115.602 113.691 112 114C115.17 110.74 118.399 107.778 122 105Z" fill="#3898F1"/>
<path d="M47 130C47.99 130.66 48.98 131.32 50 132C50.1875 134.625 50.1875 134.625 50 137C47.03 136.505 47.03 136.505 44 136C45.875 131.125 45.875 131.125 47 130Z" fill="#E5F0FC"/>
<path d="M163 102C163 105.668 162.21 107.105 160 110C157.312 110.812 157.312 110.812 155 111C155.957 109.874 156.916 108.749 157.875 107.625C158.409 106.999 158.942 106.372 159.492 105.727C160.614 104.442 161.794 103.206 163 102Z" fill="#9DAFD6"/>
<path d="M54 139C55.4358 138.892 56.874 138.814 58.3125 138.75C59.113 138.704 59.9135 138.657 60.7383 138.609C63 139 63 139 64.793 141.016C65.1913 141.67 65.5896 142.325 66 143C64.1858 142.719 62.3736 142.425 60.5625 142.125C59.0485 141.881 59.0485 141.881 57.5039 141.633C56.6776 141.424 55.8513 141.215 55 141C54.67 140.34 54.34 139.68 54 139Z" fill="#5B6AC8"/>
<path d="M26 108C27.65 108.33 29.3 108.66 31 109C31.33 110.65 31.66 112.3 32 114C31.67 113.01 31.34 112.02 31 111C29.02 111.66 27.04 112.32 25 113C25.33 111.35 25.66 109.7 26 108Z" fill="#A4DBF0"/>
<path d="M112 100C110 103 110 103 107.836 103.512C106.618 103.599 106.618 103.599 105.375 103.688C104.558 103.753 103.74 103.819 102.898 103.887C102.272 103.924 101.645 103.961 101 104C104.737 100.483 106.865 99.5223 112 100Z" fill="#4398D8"/>
<path d="M81 141C81.33 141.66 81.66 142.32 82 143C79.36 143.66 76.72 144.32 74 145C73.34 144.01 72.68 143.02 72 142C74.9566 140.522 77.7423 140.94 81 141Z" fill="#3AC6FB"/>
<path d="M131 131C131.66 131.33 132.32 131.66 133 132C131.547 133.339 130.088 134.671 128.625 136C127.813 136.743 127.001 137.485 126.164 138.25C124 140 124 140 122 140C123.517 135.45 127.169 133.499 131 131Z" fill="#385AA1"/>
<path d="M78 139C81.3 139 84.6 139 88 139C86.515 140.485 86.515 140.485 85 142C81.875 141.812 81.875 141.812 79 141C78.67 140.34 78.34 139.68 78 139Z" fill="#2769F7"/>
<path d="M164 79C167 80 167 80 168 82C166.824 82.6806 166.824 82.6806 165.625 83.375C162.963 84.8843 162.963 84.8843 161 87C161.75 81.25 161.75 81.25 164 79Z" fill="#8ED6EF"/>
<path d="M140 46C142.475 46.99 142.475 46.99 145 48C145 48.66 145 49.32 145 50C145.99 50 146.98 50 148 50C148 51.65 148 53.3 148 55C145.068 52.1472 142.357 49.3492 140 46Z" fill="#4DB1FC"/>
<path d="M79 123C80.98 123 82.96 123 85 123C85 123.99 85 124.98 85 126C82.36 126.33 79.72 126.66 77 127C77.66 125.68 78.32 124.36 79 123Z" fill="#6E9FE5"/>
<path d="M93 106C92.25 107.938 92.25 107.938 91 110C88.875 110.75 88.875 110.75 87 111C87 110.34 87 109.68 87 109C85.68 108.67 84.36 108.34 83 108C84.2909 107.664 85.5828 107.331 86.875 107C87.5943 106.814 88.3136 106.629 89.0547 106.438C91 106 91 106 93 106Z" fill="#284270"/>
<path d="M107 80C110.914 81.2694 112.791 82.5117 115 86C114.01 86.33 113.02 86.66 112 87C110.291 85.3766 108.626 83.7068 107 82C107 81.34 107 80.68 107 80Z" fill="#226AC4"/>
<path d="M28 54C28.66 54 29.32 54 30 54C28.515 60.435 28.515 60.435 27 67C26.67 67 26.34 67 26 67C25.9455 65.5838 25.907 64.1669 25.875 62.75C25.8518 61.9611 25.8286 61.1722 25.8047 60.3594C26.0172 57.7927 26.7135 56.2084 28 54Z" fill="#072B7D"/>
<path d="M32 132C33.32 132.33 34.64 132.66 36 133C36 134.32 36 135.64 36 137C35.01 137.33 34.02 137.66 33 138C32 137 32 137 31.9375 134.438C31.9581 133.633 31.9787 132.829 32 132Z" fill="#526CBA"/>
<path d="M112 125C113.32 125.33 114.64 125.66 116 126C115.34 127.65 114.68 129.3 114 131C112.35 131 110.7 131 109 131C110 129 111 127 112 125Z" fill="#E3EFFE"/>
<path d="M110 112C110.66 112.33 111.32 112.66 112 113C108.755 115.04 105.594 116.665 102 118C103 115 103 115 106.438 113.25C107.613 112.838 108.789 112.425 110 112Z" fill="#529EEE"/>
<path d="M37 136C37.99 136 38.98 136 40 136C40.33 137.32 40.66 138.64 41 140C38.69 140.66 36.38 141.32 34 142C34.33 140.68 34.66 139.36 35 138C35.66 138 36.32 138 37 138C37 137.34 37 136.68 37 136Z" fill="#5A73BD"/>
<path d="M70 115C71.4384 115.115 72.8757 115.242 74.3125 115.375C75.5133 115.479 75.5133 115.479 76.7383 115.586C79 116 79 116 82 118C80.5634 118.081 79.1256 118.139 77.6875 118.188C76.4867 118.24 76.4867 118.24 75.2617 118.293C72.5215 117.938 71.7083 117.106 70 115Z" fill="#98CBF8"/>
<path d="M149 99C150.32 99.33 151.64 99.66 153 100C149.04 103.465 149.04 103.465 145 107C144.34 106.67 143.68 106.34 143 106C144.98 103.69 146.96 101.38 149 99Z" fill="#ABDCF9"/>
<path d="M48 143C51.6875 143.498 53.6049 144.101 56 147C53.69 146.67 51.38 146.34 49 146C48.67 145.01 48.34 144.02 48 143Z" fill="#5A77C2"/>
<path d="M45 136C46.32 136 47.64 136 49 136C49.33 137.98 49.66 139.96 50 142C48.0625 141.25 48.0625 141.25 46 140C45.25 137.875 45.25 137.875 45 136Z" fill="#889AD4"/>
<path d="M75 123C76.65 123.33 78.3 123.66 80 124C78.75 125.562 78.75 125.562 77 127C74.8125 126.688 74.8125 126.688 73 126C73.66 125.01 74.32 124.02 75 123Z" fill="#5793E5"/>
<path d="M141 120C142.32 120.33 143.64 120.66 145 121C142.647 123.724 140.375 124.814 137 126C138.32 124.02 139.64 122.04 141 120Z" fill="#4865BB"/>
<path d="M42 119C46.455 121.97 46.455 121.97 51 125C50.01 125.33 49.02 125.66 48 126C44.8125 123.688 44.8125 123.688 42 121C42 120.34 42 119.68 42 119Z" fill="#51627D"/>
<path d="M38 118C39.875 118.25 39.875 118.25 42 119C43.25 121.062 43.25 121.062 44 123C42.02 122.34 40.04 121.68 38 121C38 120.01 38 119.02 38 118Z" fill="#708BC9"/>
<path d="M142 102C143.32 102 144.64 102 146 102C144.951 104.622 144.351 105.794 141.875 107.25C141.256 107.498 140.637 107.745 140 108C140.66 106.02 141.32 104.04 142 102Z" fill="#5BAAF4"/>
<path d="M153 91C153.33 91 153.66 91 154 91C154.125 96.75 154.125 96.75 153 99C152.01 99 151.02 99 150 99C151.875 93.25 151.875 93.25 153 91Z" fill="#7BCFF8"/>
<g filter="url(#filter1_d_2_3)">
<path d="M161 74C162.98 74.66 164.96 75.32 167 76C167 76.66 167 77.32 167 78C165.02 78.33 163.04 78.66 161 79C161 77.35 161 75.7 161 74Z" fill="#60C8ED"/>
<path d="M166.5 77.5764L161.5 78.4098V78.4005V78.3908V78.3812V78.3715V78.3618V78.3521V78.3425V78.3328V78.3231V78.3134V78.3038V78.2941V78.2844V78.2747V78.2651V78.2554V78.2457V78.236V78.2264V78.2167V78.207V78.1973V78.1877V78.178V78.1683V78.1586V78.149V78.1393V78.1296V78.1199V78.1103V78.1006V78.0909V78.0812V78.0715V78.0619V78.0522V78.0425V78.0328V78.0232V78.0135V78.0038V77.9941V77.9844V77.9748V77.9651V77.9554V77.9457V77.936V77.9263V77.9167V77.907V77.8973V77.8876V77.8779V77.8683V77.8586V77.8489V77.8392V77.8295V77.8198V77.8101V77.8005V77.7908V77.7811V77.7714V77.7617V77.752V77.7423V77.7327V77.723V77.7133V77.7036V77.6939V77.6842V77.6745V77.6648V77.6552V77.6455V77.6358V77.6261V77.6164V77.6067V77.597V77.5873V77.5776V77.5679V77.5582V77.5485V77.5389V77.5292V77.5195V77.5098V77.5001V77.4904V77.4807V77.471V77.4613V77.4516V77.4419V77.4322V77.4225V77.4128V77.4031V77.3934V77.3837V77.374V77.3643V77.3546V77.3449V77.3352V77.3255V77.3158V77.3061V77.2964V77.2867V77.277V77.2673V77.2576V77.2479V77.2382V77.2285V77.2188V77.2091V77.1994V77.1897V77.1799V77.1702V77.1605V77.1508V77.1411V77.1314V77.1217V77.112V77.1023V77.0926V77.0829V77.0731V77.0634V77.0537V77.044V77.0343V77.0246V77.0149V77.0051V76.9954V76.9857V76.976V76.9663V76.9566V76.9468V76.9371V76.9274V76.9177V76.908V76.8982V76.8885V76.8788V76.8691V76.8594V76.8496V76.8399V76.8302V76.8205V76.8107V76.801V76.7913V76.7816V76.7718V76.7621V76.7524V76.7427V76.7329V76.7232V76.7135V76.7037V76.694V76.6843V76.6745V76.6648V76.6551V76.6453V76.6356V76.6259V76.6161V76.6064V76.5967V76.5869V76.5772V76.5674V76.5577V76.548V76.5382V76.5285V76.5187V76.509V76.4993V76.4895V76.4798V76.47V76.4603V76.4505V76.4408V76.4311V76.4213V76.4116V76.4018V76.3921V76.3823V76.3726V76.3628V76.3531V76.3433V76.3336V76.3238V76.3141V76.3043V76.2945V76.2848V76.275V76.2653V76.2555V76.2458V76.236V76.2262V76.2165V76.2067V76.197V76.1872V76.1774V76.1677V76.1579V76.1482V76.1384V76.1286V76.1189V76.1091V76.0993V76.0896V76.0798V76.07V76.0602V76.0505V76.0407V76.0309V76.0212V76.0114V76.0016V75.9918V75.9821V75.9723V75.9625V75.9527V75.9429V75.9332V75.9234V75.9136V75.9038V75.894V75.8843V75.8745V75.8647V75.8549V75.8451V75.8353V75.8255V75.8158V75.806V75.7962V75.7864V75.7766V75.7668V75.757V75.7472V75.7374V75.7276V75.7178V75.708V75.6982V75.6885V75.6787V75.6689V75.6591V75.6493V75.6395V75.6296V75.6198V75.61V75.6002V75.5904V75.5806V75.5708V75.561V75.5512V75.5414V75.5316V75.5218V75.512V75.5022V75.4923V75.4825V75.4727V75.4629V75.4531V75.4433V75.4334V75.4236V75.4138V75.404V75.3942V75.3843V75.3745V75.3647V75.3549V75.345V75.3352V75.3254V75.3156V75.3057V75.2959V75.2861V75.2762V75.2664V75.2566V75.2467V75.2369V75.2271V75.2172V75.2074V75.1976V75.1877V75.1779V75.168V75.1582V75.1484V75.1385V75.1287V75.1188V75.109V75.0991V75.0893V75.0794V75.0696V75.0597V75.0499V75.04V75.0302V75.0203V75.0105V75.0006V74.9907V74.9809V74.971V74.9612V74.9513V74.9414V74.9316V74.9217V74.9119V74.902V74.8921V74.8823V74.8724V74.8625V74.8526V74.8428V74.8329V74.823V74.8132V74.8033V74.7934V74.7835V74.7736V74.7638V74.7539V74.744V74.7341V74.7242V74.7144V74.7045V74.6946V74.6937L166.5 76.3604V76.3636V76.3675V76.3714V76.3753V76.3791V76.383V76.3869V76.3907V76.3946V76.3985V76.4024V76.4062V76.4101V76.414V76.4178V76.4217V76.4256V76.4295V76.4333V76.4372V76.4411V76.445V76.4488V76.4527V76.4566V76.4604V76.4643V76.4682V76.4721V76.4759V76.4798V76.4837V76.4876V76.4914V76.4953V76.4992V76.5031V76.5069V76.5108V76.5147V76.5186V76.5224V76.5263V76.5302V76.5341V76.5379V76.5418V76.5457V76.5496V76.5534V76.5573V76.5612V76.5651V76.5689V76.5728V76.5767V76.5806V76.5845V76.5883V76.5922V76.5961V76.6V76.6038V76.6077V76.6116V76.6155V76.6194V76.6232V76.6271V76.631V76.6349V76.6388V76.6426V76.6465V76.6504V76.6543V76.6582V76.662V76.6659V76.6698V76.6737V76.6776V76.6814V76.6853V76.6892V76.6931V76.697V76.7008V76.7047V76.7086V76.7125V76.7164V76.7203V76.7241V76.728V76.7319V76.7358V76.7397V76.7436V76.7474V76.7513V76.7552V76.7591V76.763V76.7669V76.7707V76.7746V76.7785V76.7824V76.7863V76.7902V76.7941V76.7979V76.8018V76.8057V76.8096V76.8135V76.8174V76.8213V76.8252V76.829V76.8329V76.8368V76.8407V76.8446V76.8485V76.8524V76.8563V76.8601V76.864V76.8679V76.8718V76.8757V76.8796V76.8835V76.8874V76.8913V76.8952V76.899V76.9029V76.9068V76.9107V76.9146V76.9185V76.9224V76.9263V76.9302V76.9341V76.938V76.9419V76.9458V76.9497V76.9535V76.9574V76.9613V76.9652V76.9691V76.973V76.9769V76.9808V76.9847V76.9886V76.9925V76.9964V77.0003V77.0042V77.0081V77.012V77.0159V77.0198V77.0237V77.0276V77.0315V77.0354V77.0393V77.0432V77.0471V77.051V77.0549V77.0588V77.0627V77.0666V77.0705V77.0744V77.0783V77.0822V77.0861V77.09V77.0939V77.0978V77.1017V77.1056V77.1095V77.1134V77.1173V77.1212V77.1251V77.129V77.1329V77.1368V77.1407V77.1446V77.1486V77.1525V77.1564V77.1603V77.1642V77.1681V77.172V77.1759V77.1798V77.1837V77.1876V77.1915V77.1954V77.1994V77.2033V77.2072V77.2111V77.215V77.2189V77.2228V77.2267V77.2306V77.2346V77.2385V77.2424V77.2463V77.2502V77.2541V77.258V77.262V77.2659V77.2698V77.2737V77.2776V77.2815V77.2854V77.2894V77.2933V77.2972V77.3011V77.305V77.3089V77.3129V77.3168V77.3207V77.3246V77.3285V77.3325V77.3364V77.3403V77.3442V77.3481V77.3521V77.356V77.3599V77.3638V77.3677V77.3717V77.3756V77.3795V77.3834V77.3874V77.3913V77.3952V77.3991V77.4031V77.407V77.4109V77.4148V77.4188V77.4227V77.4266V77.4306V77.4345V77.4384V77.4423V77.4463V77.4502V77.4541V77.4581V77.462V77.4659V77.4698V77.4738V77.4777V77.4816V77.4856V77.4895V77.4934V77.4974V77.5013V77.5052V77.5092V77.5131V77.517V77.521V77.5249V77.5288V77.5328V77.5367V77.5407V77.5446V77.5485V77.5525V77.5564V77.5604V77.5643V77.5682V77.5722V77.5761V77.5764Z" stroke="black"/>
</g>
<path d="M121 112C122.32 112.66 123.64 113.32 125 114C121.772 116.152 120.716 116.201 117 116C118.32 114.68 119.64 113.36 121 112Z" fill="#2077E4"/>
</g>
<rect x="4.5" y="0.5" width="179" height="179" stroke="black" shape-rendering="crispEdges"/>
</g>
<defs>
<filter id="filter0_d_2_3" x="0" y="0" width="188" height="188" filterUnits="userSpaceOnUse" color-interpolation-filters="sRGB">
<feFlood flood-opacity="0" result="BackgroundImageFix"/>
<feColorMatrix in="SourceAlpha" type="matrix" values="0 0 0 0 0 0 0 0 0 0 0 0 0 0 0 0 0 0 127 0" result="hardAlpha"/>
<feOffset dy="4"/>
<feGaussianBlur stdDeviation="2"/>
<feComposite in2="hardAlpha" operator="out"/>
<feColorMatrix type="matrix" values="0 0 0 0 0 0 0 0 0 0 0 0 0 0 0 0 0 0 0.25 0"/>
<feBlend mode="normal" in2="BackgroundImageFix" result="effect1_dropShadow_2_3"/>
<feBlend mode="normal" in="SourceGraphic" in2="effect1_dropShadow_2_3" result="shape"/>
</filter>
<filter id="filter1_d_2_3" x="157" y="74" width="14" height="13" filterUnits="userSpaceOnUse" color-interpolation-filters="sRGB">
<feFlood flood-opacity="0" result="BackgroundImageFix"/>
<feColorMatrix in="SourceAlpha" type="matrix" values="0 0 0 0 0 0 0 0 0 0 0 0 0 0 0 0 0 0 127 0" result="hardAlpha"/>
<feOffset dy="4"/>
<feGaussianBlur stdDeviation="2"/>
<feComposite in2="hardAlpha" operator="out"/>
<feColorMatrix type="matrix" values="0 0 0 0 0 0 0 0 0 0 0 0 0 0 0 0 0 0 0.25 0"/>
<feBlend mode="normal" in2="BackgroundImageFix" result="effect1_dropShadow_2_3"/>
<feBlend mode="normal" in="SourceGraphic" in2="effect1_dropShadow_2_3" result="shape"/>
</filter>
<clipPath id="clip0_2_3">
<rect x="4" width="180" height="180" fill="white"/>
</clipPath>
</defs>
</svg>
